# xmcd
#
# Track frame offsets:
#	183
#	18958
#	35083
#	51283
#	65158
#	79333
#	90733
#	102283
#	119233
#	128303
#	139558
#	149983
#
# Disc length: 2171 seconds
#
# Revision: 6
# Processed by: cddbd v1.5.2PL0 Copyright (c) Steve Scherf et al.
# Submitted via: audiograbber 1.83.01
#
DISCID=b408790c
DTITLE=Sampler Blues - The legacy of the blues sampler
DYEAR=1974
DGENRE=Blues
TTITLE0=White, Bukka - Aberdeen Mississippi blues
TTITLE1=Eaglin, Snooks - Funky malaguena
TTITLE2=Dupree, Champion Jack - Found my baby gone
TTITLE3=Young, Mighty Joe - Wishy washy woman
TTITLE4=Bonner, Juke Boy - I'm a bluesman
TTITLE5=Williams, Big Joe - Black gal you're sure looking warm
TTITLE6=Memphis Slim - A long time gone
TTITLE7=Short, J. D. - Starry crown blues
TTITLE8=Williams, Robert Pete - I'm going to have myself a ball
TTITLE9=Boyd, Eddie - The cannonball
TTITLE10=Sunnyland Slim - She's so mellow
TTITLE11=Lightnin' Hopkins - Please help poor me
EXTD=
EXTT0=
EXTT1=
EXTT2=
EXTT3=
EXTT4=
EXTT5=
EXTT6=
EXTT7=
EXTT8=
EXTT9=
EXTT10=
EXTT11=
PLAYORDER=
